<svg id="f9587f1b-ca56-495c-90b5-99694f5c7bf3" data-name="Ebene 1" xmlns="http://www.w3.org/2000/svg" viewBox="0 0 529.4 714"><title>icon-editpop-bold-2</title><path d="M386.4,218.2H608.6q151.8,0,220.5,43.3t68.6,137.6c0,42.6-10,77.7-30,105S821,548,787.8,553.5v4.9q68,15.1,97.9,56.6t30.1,110.3q0,97.7-70.6,152.3T653.5,932.2H386.4Zm151.4,283h87.9q61.5,0,89.1-19c18.4-12.7,27.6-33.8,27.6-63.1q0-41.1-30-59c-20.1-11.9-51.7-17.8-95-17.8H537.8Zm0,120.2V807.2h98.6c41.7,0,72.5-7.9,92.3-23.9s29.8-40.3,29.8-73.1q0-88.8-127-88.8Z" transform="translate(-386.4 -218.2)"/></svg>