<svg id="aa04ed30-cf7d-474b-a6f3-c8fdd9e5bb82" data-name="Ebene 1" xmlns="http://www.w3.org/2000/svg" viewBox="0 0 1090.4 676.7"><title>icon-cloud-default-service</title><path d="M1047,726.6c-7-29.6-10-60.3-18.1-89.7-3.4-12.3-9.5-23.8-13.9-35.7a124.3,124.3,0,0,1-7.6-30.4c-40.6-11.7-84.8-16.9-125-16.9L246.1,522.7C130,522.7,55.4,597.3,55.4,713.4h0c0,116,95,211,211,211H936.8a209.6,209.6,0,0,0,124.3-40.8C1061.5,831,1059,777.9,1047,726.6Z" transform="translate(-55.4 -247.7)"/><circle cx="628.9" cy="322" r="322"/><ellipse cx="899.3" cy="497.2" rx="191.1" ry="179.6"/><circle cx="280.6" cy="289.8" r="133.9"/></svg>