<svg id="bd0728ed-ba74-4645-bca3-fac967cb95d4" data-name="Ebene 1" xmlns="http://www.w3.org/2000/svg" viewBox="0 0 950 633.9"><title>icon-editpop-ref</title><path d="M601.7,738.9q58.8-13.2,82.8-58.3,18.4-34.5,22.7-105.1c-21.3.3-40.2.9-56.7,1.7q-3.9,42.8-15.7,64-17.7,32.1-63.3,39.4T407,688.1q-118.8,0-163.9-7.5c-30-4.9-50.8-18-62.2-39.4s-17.1-58.6-17.1-111.9,5.7-90.4,17.1-111.3,32.2-33.9,62.2-38.8,84.7-7.5,163.9-7.5,134.9,2.5,165,7.5S623,397,634.8,418q12.5,22,16.2,68.3c17.1-1,35.8-1.7,56.2-2.1-2.8-46.9-10.4-82.2-22.7-105.6q-24-45.7-82.8-58.2T407,307.8q-134.7,0-193.6,12.6t-82.2,58.2q-23.4,45.6-23.4,150.7t23.4,151.3q23.4,45.1,82.2,58.3T407,752Q542.9,752,601.7,738.9Z" transform="translate(-107.8 -307.8)"/><path d="M951,928.6q58.8-13.2,82.8-58.3t24-151.3q0-105-24-150.7T951,510q-58.8-12.6-194.7-12.5T562.8,510c-39.2,8.4-66.7,27.8-82.2,58.3C468.5,591.7,461.2,627,458.4,674c21.2-.4,40.1-1,56.5-1.9q3.8-43.2,15.3-64.4c11.4-21,32.2-33.9,62.3-38.9s84.6-7.4,163.8-7.4,135,2.5,165.1,7.4,50.9,17.9,62.8,38.9,17.7,58,17.7,111.3-5.9,90.6-17.7,111.9-33,34.5-63.4,39.4-85.3,7.4-164.5,7.4-133.8-2.4-163.8-7.4-50.9-18.1-62.3-39.4c-7.9-14.8-13.1-37.5-15.5-67.9-17.1,1-35.9,1.7-56.3,2.2q4.2,70.5,22.2,105.1c15.5,30.1,43,49.5,82.2,58.3s103.7,13.1,193.5,13.1S911.8,937.3,951,928.6Z" transform="translate(-107.8 -307.8)"/></svg>