<svg id="f8df8857-a179-41e1-8f3c-a62c7f84499d" data-name="Ebene 1" xmlns="http://www.w3.org/2000/svg" viewBox="0 0 1136.7 1135"><defs><style>.badef6c2-31aa-4cc0-a085-53c05af9ead9,.ed1ff25f-df0b-458a-94b3-d1afc4d9cc25{stroke:#000;stroke-miterlimit:10;}.badef6c2-31aa-4cc0-a085-53c05af9ead9{stroke-width:1.1px;}.ed1ff25f-df0b-458a-94b3-d1afc4d9cc25{stroke-width:1.16px;}</style></defs><title>icon-into-lightmode</title><path class="badef6c2-31aa-4cc0-a085-53c05af9ead9" d="M594.3,309.1C436.7,309.1,309,436.9,309,594.4S436.7,879.7,594.3,879.7,879.6,752,879.6,594.4,751.8,309.1,594.3,309.1Zm1,475.7c-104.1,0-188.5-84.4-188.5-188.5s84.4-188.4,188.5-188.4A188.3,188.3,0,0,1,783.7,596.3C783.7,700.4,699.4,784.8,595.3,784.8Z" transform="translate(-26.9 -26.9)"/><rect class="ed1ff25f-df0b-458a-94b3-d1afc4d9cc25" x="521.1" y="0.6" width="96.5" height="237.76" rx="48.3"/><rect class="ed1ff25f-df0b-458a-94b3-d1afc4d9cc25" x="521.1" y="896.6" width="96.5" height="237.76" rx="48.3"/><rect class="ed1ff25f-df0b-458a-94b3-d1afc4d9cc25" x="865.7" y="160.7" width="96.5" height="237.76" rx="48.3" transform="translate(438.5 -591.3) rotate(45)"/><rect class="ed1ff25f-df0b-458a-94b3-d1afc4d9cc25" x="230.2" y="158.7" width="96.5" height="237.76" rx="48.3" transform="translate(-141.6 251.3) rotate(-45)"/><rect class="ed1ff25f-df0b-458a-94b3-d1afc4d9cc25" x="995.9" y="477.4" width="96.5" height="237.76" rx="48.3" transform="translate(1613.5 -474.8) rotate(90)"/><rect class="ed1ff25f-df0b-458a-94b3-d1afc4d9cc25" x="98.1" y="475.5" width="96.5" height="237.76" rx="48.3" transform="translate(-475 713.9) rotate(-90)"/><rect class="ed1ff25f-df0b-458a-94b3-d1afc4d9cc25" x="865.7" y="794.2" width="96.5" height="237.76" rx="48.3" transform="translate(-404.9 886.8) rotate(-45)"/><rect class="ed1ff25f-df0b-458a-94b3-d1afc4d9cc25" x="230.2" y="796.2" width="96.5" height="237.76" rx="48.3" transform="translate(701.7 44.1) rotate(45)"/></svg>