<svg id="e9b3e204-ac5e-410d-ae67-0f9b08f2ff53" data-name="Ebene 1" xmlns="http://www.w3.org/2000/svg" viewBox="0 0 1026.7 797.8"><title>icon-editpop-quote-2</title><path d="M544,446.5a611.2,611.2,0,0,1-24.7,173.6q-24.7,84-80.5,155.7t-143,128.9Q208.4,961.9,81.9,999V880.4Q220.5,836.3,285,772.9t64.5-146q0-27.6-15.1-46.1t-38.6-33.1q-23.4-14.4-49.6-28.2a290.7,290.7,0,0,1-49.5-33.1,156.6,156.6,0,0,1-38.6-47.5C148,420,143,396.4,143,367.9q0-81.3,53-124t131.7-42.7A217,217,0,0,1,410.4,217a205.5,205.5,0,0,1,68.9,46.9q30.3,31.1,47.5,77.2T544,446.5Zm564.6,0a611.2,611.2,0,0,1-24.7,173.6q-24.7,84-80.5,155.7t-143,128.9Q773,961.9,646.5,999V880.4q137.3-44.1,202.4-107.5t65.2-146c0-18.4-5.1-33.8-15.1-46.1s-23-23.5-38.6-33.1-32.2-19-49.6-28.2a290.7,290.7,0,0,1-49.5-33.1,156.6,156.6,0,0,1-38.6-47.5c-10.1-18.9-15.2-42.5-15.2-71q0-81.3,52.4-124t130.9-42.7A222.1,222.1,0,0,1,974.2,217a196.4,196.4,0,0,1,69,46.9q29.5,31.1,47.5,77.2T1108.6,446.5Z" transform="translate(-81.9 -201.2)"/></svg>