<svg id="a95b8245-2dc8-4076-a90a-734e07f796a0" data-name="Ebene 1" xmlns="http://www.w3.org/2000/svg" viewBox="0 0 1014 696.6"><defs><style>.bc77343c-7031-46a9-b6b6-da31bac6e424{fill:#fff;}</style></defs><title>icon-help</title><path d="M1018.1,143.4H185.7a90.7,90.7,0,0,0-90.5,90.5V574l-.5-.4.4,246.8a19.6,19.6,0,0,0,30.8,16.1l130.2-90.4a73.7,73.7,0,0,1,42.1-13.2h719.9c49.8,0,90.6-40.8,90.6-90.6V233.9C1108.7,184.1,1067.9,143.4,1018.1,143.4Z" transform="translate(-94.7 -143.4)"/><path class="bc77343c-7031-46a9-b6b6-da31bac6e424" d="M411.9,559.8H359.1V452h-99V559.8H207.2V310h52.9v97.9h99V310h52.8Z" transform="translate(-94.7 -143.4)"/><path class="bc77343c-7031-46a9-b6b6-da31bac6e424" d="M618.9,559.8H475V310H618.9v43.4h-91v54.9h84.6v43.4H527.9v64.4h91Z" transform="translate(-94.7 -143.4)"/><path class="bc77343c-7031-46a9-b6b6-da31bac6e424" d="M671,559.8V310h53V516.1H825.3v43.7Z" transform="translate(-94.7 -143.4)"/><path class="bc77343c-7031-46a9-b6b6-da31bac6e424" d="M1041.3,387.9q0,40.4-25.2,61.7T944.4,471H921.7v88.8h-53V310h79.8c30.3,0,53.4,6.5,69.1,19.6S1041.3,362.1,1041.3,387.9ZM921.7,427.6h17.4c16.3,0,28.5-3.2,36.6-9.7s12.1-15.8,12.1-28.1-3.4-21.6-10.1-27.5-17.4-8.9-31.9-8.9H921.7Z" transform="translate(-94.7 -143.4)"/></svg>