<svg id="eb705fbd-fc5e-42f1-b93c-6d487612d5b6" data-name="Ebene 1" xmlns="http://www.w3.org/2000/svg" viewBox="0 0 608.3 714"><title>icon-editpop-bold-1</title><path d="M846.7,399.9q0,33.2-9,57.8a124.5,124.5,0,0,1-25.6,42.5,157.4,157.4,0,0,1-39.9,30.5,277.5,277.5,0,0,1-51.5,21.5v4.9a276.3,276.3,0,0,1,63.2,24.1,191.4,191.4,0,0,1,49.2,37.7,161.9,161.9,0,0,1,32.2,51.5c7.6,19.6,11.4,41.5,11.4,65.9q0,98.7-71.7,147.3T590.7,932.2H268.5V879h41a89.4,89.4,0,0,0,20.7-2.2,32.5,32.5,0,0,0,16.4-9c4.6-4.6,8.2-11.1,11-19.5s4.1-19.9,4.1-34.2V335c0-13.4-1.3-24.2-4.1-32.5s-6.5-14.7-11.2-19.3a38.4,38.4,0,0,0-16.6-9.5,74.3,74.3,0,0,0-20.3-2.7h-41V218.2h292q142.7,0,214.5,44T846.7,399.9ZM519.5,528.2h38.1q35.1,0,58.4-7.3c15.5-4.9,27.8-12.4,37.1-22.7s15.9-23.5,19.8-39.8,5.9-35.9,5.9-58.7-2.2-41.9-6.6-57.2-11.5-27.7-21.3-37.1-22.5-16.2-38.1-20.3-34.7-6.1-57.2-6.1H519.5Zm0,343h66.3q33.2,0,56.6-7.3t38.1-23.7q14.6-16.4,21.2-42.8t6.6-64.5q0-36.6-5.9-63.7c-3.9-18.1-10.5-33-20-44.7s-21.8-20.5-37.1-26.4-34.4-8.8-57.5-8.8H519.5Z" transform="translate(-268.5 -218.2)"/></svg>