<svg id="a28b2254-f0b8-455e-b5c7-369bb8f349c2" data-name="Ebene 1" xmlns="http://www.w3.org/2000/svg" viewBox="0 0 808.1 1069.1"><title>icon-delete-trashcan</title><path d="M867.5,195.1H756.7a115.1,115.1,0,0,0,.6-11.8h0A121.5,121.5,0,0,0,635.7,61.7H552.9A121.5,121.5,0,0,0,431.4,183.3v5.8c0,2,0,4,.1,6H323.1c-72.5,0-131.9,59.4-131.9,131.9v58.2a12,12,0,0,0,12,12H987.3a12,12,0,0,0,12-12V327C999.3,254.5,940,195.1,867.5,195.1Zm-354.2-27a38.5,38.5,0,0,1,38.3-38.4h85.5A38.4,38.4,0,0,1,675.3,168v27.1h-162Z" transform="translate(-191.2 -61.7)"/><path d="M940.8,410.4H251.7a12.8,12.8,0,0,0-12.8,12.8v675.4a32.2,32.2,0,0,0,32.2,32.2H921.4a32.2,32.2,0,0,0,32.2-32.2V423.2A12.8,12.8,0,0,0,940.8,410.4ZM446.6,1038.6a14.9,14.9,0,0,1-14.8,14.8H383.4a14.9,14.9,0,0,1-14.8-14.8V507a14.9,14.9,0,0,1,14.8-14.8h48.4A14.9,14.9,0,0,1,446.6,507Zm188,0a14.8,14.8,0,0,1-14.7,14.8H571.5a14.8,14.8,0,0,1-14.8-14.8V507a14.8,14.8,0,0,1,14.8-14.8h48.4A14.8,14.8,0,0,1,634.6,507Zm187.3-1.4a14.7,14.7,0,0,1-14.7,14.7H758.8a14.7,14.7,0,0,1-14.8-14.7V505.5a14.7,14.7,0,0,1,14.8-14.7h48.4a14.7,14.7,0,0,1,14.7,14.7Z" transform="translate(-191.2 -61.7)"/></svg>