<svg id="a30a570a-32ef-49c7-8deb-5d51aab66ade" data-name="Ebene 1" xmlns="http://www.w3.org/2000/svg" viewBox="0 0 1129.6 935.8"><defs><style>.b7dfcfae-5a29-4e53-9f08-74fd075abaf5{fill:#020202;}</style></defs><title>icon-service</title><path class="b7dfcfae-5a29-4e53-9f08-74fd075abaf5" d="M1156.4,851.1,1092.1,814a232.1,232.1,0,0,0,1.3-23.7c0-5.5-.2-10.9-.6-16.3l64.4-37.1a6,6,0,0,0,2.1-8.1l-80.5-139.5a6,6,0,0,0-8.1-2.2l-61.2,35.4a206.1,206.1,0,0,0-38.1-22.7V530.2a6,6,0,0,0-5.9-5.9H804.4a5.9,5.9,0,0,0-5.9,5.9v68.5a206.9,206.9,0,0,0-39.5,23l-59.1-34.1a5.9,5.9,0,0,0-8,2.2L611.3,729.3a5.9,5.9,0,0,0,2.2,8l61.3,35.4c-.5,5.8-.8,11.7-.8,17.6a205.9,205.9,0,0,0,1.5,25l-61.2,35.4a5.9,5.9,0,0,0-2.2,8l80.6,139.5a5.8,5.8,0,0,0,8,2.2l64.4-37.2a205.6,205.6,0,0,0,33.4,18.7v75.4a5.9,5.9,0,0,0,5.9,5.9H965.5a6,6,0,0,0,5.9-5.9V980.8a215.2,215.2,0,0,0,32-18.3l66.5,38.4a6,6,0,0,0,8.1-2.2l80.5-139.5A6,6,0,0,0,1156.4,851.1ZM883.9,886.8A95.9,95.9,0,1,1,979.8,791,95.8,95.8,0,0,1,883.9,886.8Z" transform="translate(-30.5 -127.4)"/><path class="b7dfcfae-5a29-4e53-9f08-74fd075abaf5" d="M873.5,127.4H125.4c-52.2,0-94.9,42.7-94.9,94.9v553c0,52.2,42.7,94.9,94.9,94.9h412a9.6,9.6,0,0,0,9.7-9.7V800.7a9.6,9.6,0,0,0-9.7-9.7h-404A15.5,15.5,0,0,1,118,775.5V332.4A15.4,15.4,0,0,1,133.4,317H864.6A15.5,15.5,0,0,1,880,332.4v116a10.2,10.2,0,0,0,10.2,10.2h68.1a10.2,10.2,0,0,0,10.1-10.2V222.3C968.4,170.1,925.7,127.4,873.5,127.4ZM188.9,252.9a6.3,6.3,0,0,1-6.3,6.3H124.3a6.3,6.3,0,0,1-6.3-6.3V194.6a6.3,6.3,0,0,1,6.3-6.3h58.3a6.3,6.3,0,0,1,6.3,6.3Z" transform="translate(-30.5 -127.4)"/></svg>