<svg id="ac5ec13a-1396-47cf-8ddd-b6198fda1629" data-name="Ebene 1" xmlns="http://www.w3.org/2000/svg" viewBox="0 0 845.4 236.3"><title>toolchain-logo</title><path d="M92.5,224.7V66.2h-48V52.7H155.2V66.2h-48V224.7Z" transform="translate(-44.5 -39)"/><path d="M329.9,224.7V39h14V224.7Z" transform="translate(-44.5 -39)"/><path d="M441,225.8a150.3,150.3,0,0,1-16.1.9c-13.7,0-23.7-2.1-30.1-6.5s-10.6-10.9-12.5-19.6-2.9-21.9-2.9-39.4,1.2-31.3,3.5-40.5,6.7-15.7,13-19.6,15.8-5.9,28.3-5.9a147.8,147.8,0,0,1,15.8.9,122.7,122.7,0,0,1,13.7,2.1v12a137.8,137.8,0,0,0-26.5-2.7c-10,0-17.4,1.4-22,4.2s-7.8,7.9-9.4,15-2.4,18.5-2.4,34,.8,27.6,2.4,34.9,4.7,12.2,9.4,14.9,12.1,4,22.5,4a121.3,121.3,0,0,0,14.1-.9,124.4,124.4,0,0,0,12.9-2.1v12A75.8,75.8,0,0,1,441,225.8Z" transform="translate(-44.5 -39)"/><path d="M563.9,148.7c0-12.5-.7-21.5-2.2-27s-4.3-9.1-8.4-11-10.8-2.7-20.1-2.7-18.2,2-22.9,6.1a26.4,26.4,0,0,0-8.9,16c-1.2,6.6-1.7,16.1-1.7,28.6v66h-14V39h14v75.2h1a27.1,27.1,0,0,1,11.7-13.7c5.7-3.5,14.3-5.3,25.8-5.3s19.8,1.6,25.5,4.9,9.4,8.3,11.3,15.1,2.9,16.5,2.9,29v80.5h-14Z" transform="translate(-44.5 -39)"/><path d="M626.7,223.6A22.8,22.8,0,0,1,614,212.5c-2.7-5.4-4.1-12.9-4.1-22.5s1-17.2,3.1-22.4a20.6,20.6,0,0,1,10.7-11.4c5-2.3,12-3.5,21.2-3.5,4.7,0,19.3.4,44,1.3V144c0-11.5-.9-19.7-2.6-24.7a14.7,14.7,0,0,0-9.8-9.6c-4.7-1.5-12.6-2.2-23.6-2.2-4.8,0-10.8.3-18,.8a148.5,148.5,0,0,0-17.2,2.2v-12c10.8-2.2,24-3.3,39.7-3.3,12.8,0,22.5,1.4,28.9,4.1a23.1,23.1,0,0,1,13.1,14.2c2.3,6.6,3.5,16.6,3.5,29.7v81.5h-12l-1-19h-1.2c-2.9,8.5-7.8,14.1-14.8,16.9s-15.2,4.1-24.7,4.1S632.3,225.7,626.7,223.6ZM672.5,212a17.9,17.9,0,0,0,11.4-10.3,56.6,56.6,0,0,0,3.9-12.9,103.3,103.3,0,0,0,1.1-16.1V164H648.4c-7,0-12.2.6-15.5,1.8a11.9,11.9,0,0,0-7,7.2c-1.3,3.5-2,8.9-2,16.2s.8,12.3,2.3,15.8a13,13,0,0,0,8.2,7.3c4,1.5,10,2.2,18,2.2S667.3,213.6,672.5,212Z" transform="translate(-44.5 -39)"/><path d="M742.4,57.7V39h15.5V57.7Zm.8,167V97.2h14V224.7Z" transform="translate(-44.5 -39)"/><path d="M875.9,148.7c0-12.5-.8-21.5-2.3-27s-4.2-9.1-8.3-11-10.8-2.7-20.2-2.7-18.1,2-22.8,6.1a26.4,26.4,0,0,0-8.9,16c-1.2,6.6-1.8,16.1-1.8,28.6v66h-14V97.2h12l1,19h1a29.9,29.9,0,0,1,12.2-15.5c5.7-3.6,14.5-5.5,26.3-5.5s19.9,1.6,25.5,4.9,9.5,8.3,11.4,15.1,2.9,16.6,2.9,29.3v80.2h-14Z" transform="translate(-44.5 -39)"/><path d="M248.6,167.2c-1.9-8.6-6.1-14.7-12.7-18.2-5.1-2.6-12.7-4.3-23-4.9,0,4.6.2,8.8.4,12.4,6.2.6,10.9,1.7,14,3.4s7.5,7.2,8.6,13.9,1.6,18.7,1.6,36-.5,29.3-1.6,35.9-4,11.1-8.6,13.6-12.9,3.7-24.5,3.7-19.8-1.2-24.4-3.7-7.4-7-8.5-13.6-1.6-18.6-1.6-35.9.5-29.5,1.6-36.1,3.9-11.2,8.5-13.8,8.2-3,14.9-3.5c-.2-3.8-.3-7.9-.4-12.3-10.3.6-18,2.3-23.1,4.9-6.7,3.5-10.9,9.6-12.8,18.2s-2.7,22.8-2.7,42.6.9,33.8,2.7,42.4,6.1,14.6,12.8,18,17.6,5.1,33,5.1,26.5-1.7,33.1-5.1,10.8-9.4,12.7-18,2.9-22.7,2.9-42.4S250.6,175.8,248.6,167.2Z" transform="translate(-44.5 -39)"/><path d="M290.2,90.7c-2-8.6-6.2-14.6-12.8-18.1s-17.6-5.3-33.1-5.3-26.3,1.8-33,5.3-10.9,9.5-12.8,18.1-2.7,22.8-2.7,42.6.9,33.8,2.7,42.4,6.1,14.6,12.8,18q7.6,3.9,23.1,4.8c0-4.6-.2-8.7-.4-12.3-6.3-.6-11-1.7-14.1-3.4s-7.4-7-8.5-13.6-1.6-18.5-1.6-35.9.5-29.5,1.6-36.1,3.9-11.2,8.5-13.8,12.7-3.8,24.4-3.8,19.8,1.3,24.5,3.8,7.5,7.3,8.6,13.9,1.6,18.7,1.6,36-.5,29.3-1.6,35.9-3.9,11.1-8.6,13.6-8.2,2.9-14.9,3.4c.2,3.8.4,7.9.5,12.3,10.3-.6,18-2.2,23-4.8,6.6-3.4,10.8-9.4,12.8-18S293,153,293,133.3,292.1,99.3,290.2,90.7Z" transform="translate(-44.5 -39)"/></svg>