<?xml version="1.0" encoding="UTF-8"?>
<svg width="1440px" height="1024px" viewBox="0 0 1440 1024" version="1.1" xmlns="http://www.w3.org/2000/svg" xmlns:xlink="http://www.w3.org/1999/xlink">
    <!-- Generator: Sketch 54.1 (76490) - https://sketchapp.com -->
    <title>viewer</title>
    <desc>Created with Sketch.</desc>
    <defs>
        <rect id="path-1" x="0" y="0" width="320" height="64" rx="2"></rect>
        <filter x="-1.9%" y="-9.4%" width="103.8%" height="118.8%" filterUnits="objectBoundingBox" id="filter-2">
            <feMorphology radius="4" operator="erode" in="SourceAlpha" result="shadowSpreadInner1"></feMorphology>
            <feGaussianBlur stdDeviation="4" in="shadowSpreadInner1" result="shadowBlurInner1"></feGaussianBlur>
            <feOffset dx="0" dy="0" in="shadowBlurInner1" result="shadowOffsetInner1"></feOffset>
            <feComposite in="shadowOffsetInner1" in2="SourceAlpha" operator="arithmetic" k2="-1" k3="1" result="shadowInnerInner1"></feComposite>
            <feColorMatrix values="0 0 0 0 0.704427083   0 0 0 0 0.704427083   0 0 0 0 0.704427083  0 0 0 0.655539773 0" type="matrix" in="shadowInnerInner1"></feColorMatrix>
        </filter>
        <filter x="-32.6%" y="-37.5%" width="165.8%" height="175.0%" filterUnits="objectBoundingBox" id="filter-3">
            <feOffset dx="0" dy="2" in="SourceAlpha" result="shadowOffsetOuter1"></feOffset>
            <feGaussianBlur stdDeviation="2" in="shadowOffsetOuter1" result="shadowBlurOuter1"></feGaussianBlur>
            <feColorMatrix values="0 0 0 0 0   0 0 0 0 0   0 0 0 0 0  0 0 0 0.5 0" type="matrix" in="shadowBlurOuter1" result="shadowMatrixOuter1"></feColorMatrix>
            <feMerge>
                <feMergeNode in="shadowMatrixOuter1"></feMergeNode>
                <feMergeNode in="SourceGraphic"></feMergeNode>
            </feMerge>
        </filter>
        <filter x="-37.5%" y="-37.5%" width="175.0%" height="175.0%" filterUnits="objectBoundingBox" id="filter-4">
            <feOffset dx="0" dy="2" in="SourceAlpha" result="shadowOffsetOuter1"></feOffset>
            <feGaussianBlur stdDeviation="2" in="shadowOffsetOuter1" result="shadowBlurOuter1"></feGaussianBlur>
            <feColorMatrix values="0 0 0 0 0   0 0 0 0 0   0 0 0 0 0  0 0 0 0.5 0" type="matrix" in="shadowBlurOuter1" result="shadowMatrixOuter1"></feColorMatrix>
            <feMerge>
                <feMergeNode in="shadowMatrixOuter1"></feMergeNode>
                <feMergeNode in="SourceGraphic"></feMergeNode>
            </feMerge>
        </filter>
        <filter x="-37.5%" y="-36.4%" width="175.0%" height="172.7%" filterUnits="objectBoundingBox" id="filter-5">
            <feOffset dx="0" dy="2" in="SourceAlpha" result="shadowOffsetOuter1"></feOffset>
            <feGaussianBlur stdDeviation="2" in="shadowOffsetOuter1" result="shadowBlurOuter1"></feGaussianBlur>
            <feColorMatrix values="0 0 0 0 0   0 0 0 0 0   0 0 0 0 0  0 0 0 0.5 0" type="matrix" in="shadowBlurOuter1" result="shadowMatrixOuter1"></feColorMatrix>
            <feMerge>
                <feMergeNode in="shadowMatrixOuter1"></feMergeNode>
                <feMergeNode in="SourceGraphic"></feMergeNode>
            </feMerge>
        </filter>
        <filter x="-42.9%" y="-37.5%" width="185.7%" height="175.0%" filterUnits="objectBoundingBox" id="filter-6">
            <feOffset dx="0" dy="2" in="SourceAlpha" result="shadowOffsetOuter1"></feOffset>
            <feGaussianBlur stdDeviation="2" in="shadowOffsetOuter1" result="shadowBlurOuter1"></feGaussianBlur>
            <feColorMatrix values="0 0 0 0 0   0 0 0 0 0   0 0 0 0 0  0 0 0 0.5 0" type="matrix" in="shadowBlurOuter1" result="shadowMatrixOuter1"></feColorMatrix>
            <feMerge>
                <feMergeNode in="shadowMatrixOuter1"></feMergeNode>
                <feMergeNode in="SourceGraphic"></feMergeNode>
            </feMerge>
        </filter>
    </defs>
    <g id="viewer" stroke="none" stroke-width="1" fill="none" fill-rule="evenodd">
        <rect fill="#FFFFFF" x="0" y="0" width="1440" height="1024"></rect>
        <g id="Sidebar">
            <g fill-rule="evenodd" stroke-width="1">
                <g>
                    <rect id="Sidebar-background" fill="#2E72CE" x="0" y="0" width="400" height="1024"></rect>
                    <text id="Toolchain" font-family="LucidaGrande-Bold, Lucida Grande" font-size="32" font-weight="bold" fill="#FFFFFF">
                        <tspan x="119" y="63">Toolchain</tspan>
                    </text>
                    <g id="Help-center-(inactive)" transform="translate(40.000000, 428.000000)">
                        <text id="Help-center" font-family="HelveticaNeue-Medium, Helvetica Neue" font-size="18" font-weight="400" fill="#FFFFFF">
                            <tspan x="75" y="39">Help center</tspan>
                        </text>
                        <g id="fa-solid:question" transform="translate(24.000000, 16.000000)" fill-rule="nonzero">
                            <g id="Icon" fill="#FFFFFF">
                                <path d="M12.6263125,0 C7.637625,0 4.4064375,2.0439375 1.869625,5.689125 C1.4094375,6.350375 1.5513125,7.257 2.19325,7.74375 L4.889375,9.7880625 C5.5376875,10.279625 6.460125,10.1646875 6.9676875,9.5288125 C8.53325,7.5675 9.6945625,6.43825 12.14,6.43825 C14.06275,6.43825 16.441,7.6756875 16.441,9.5401875 C16.441,10.9496875 15.2774375,11.6735625 13.3789375,12.7379375 C11.165,13.9791875 8.23525,15.5239375 8.23525,19.38825 L8.23525,20 C8.23525,20.8284375 8.9068125,21.5 9.73525,21.5 L14.2646875,21.5 C15.093125,21.5 15.7646875,20.8284375 15.7646875,20 L15.7646875,19.6391875 C15.7646875,16.9604375 23.5939375,16.848875 23.5939375,9.6 C23.594,4.141 17.931375,0 12.6263125,0 Z M12,23.3411875 C9.61275,23.3411875 7.6705625,25.283375 7.6705625,27.670625 C7.6705625,30.0578125 9.61275,32 12,32 C14.38725,32 16.3294375,30.0578125 16.3294375,27.6705625 C16.3294375,25.2833125 14.38725,23.3411875 12,23.3411875 Z" id="Icon-Shape"></path>
                            </g>
                            <rect id="ViewBox" x="0" y="0" width="24" height="32"></rect>
                        </g>
                    </g>
                    <g id="Request-new-service-(inactive)" transform="translate(62.000000, 380.000000)">
                        <g id="fa-solid:folder" fill-rule="nonzero">
                            <g id="Icon" transform="translate(0.000000, 4.000000)" fill="#2E72CE">
                                <path d="M29,4 L17,4 L13,0 L3,0 C1.343125,0 0,1.343125 0,3 L0,21 C0,22.656875 1.343125,24 3,24 L29,24 C30.656875,24 32,22.656875 32,21 L32,7 C32,5.343125 30.656875,4 29,4 Z" id="Icon-Path"></path>
                            </g>
                            <rect id="ViewBox" x="0" y="0" width="32" height="32"></rect>
                        </g>
                        <text id="Request-approval" font-family="HelveticaNeue-Medium, Helvetica Neue" font-size="18" font-weight="400" fill="#FFFFFF">
                            <tspan x="55" y="23">Request approval </tspan>
                        </text>
                        <g id="fa-solid:shield-alt" fill-rule="nonzero">
                            <g id="Icon" fill="#FFFFFF">
                                <path d="M29.15625,5.23125 L17.15625,0.23125 C16.4180016,-0.0750052698 15.5882484,-0.0750052698 14.85,0.23125 L2.85,5.23125 C1.73125,5.69375 1,6.7875 1,8 C1,20.40625 8.15625,28.98125 14.84375,31.76875 C15.58125,32.075 16.4125,32.075 17.15,31.76875 C22.50625,29.5375 31,21.83125 31,8 C31,6.7875 30.26875,5.69375 29.15625,5.23125 Z M16.00625,27.89375 L16,4.08125 L26.99375,8.6625 C26.7875,18.125 21.8625,24.98125 16.00625,27.89375 L16.00625,27.89375 Z" id="Icon-Shape"></path>
                            </g>
                            <rect id="ViewBox" x="0" y="0" width="32" height="32"></rect>
                        </g>
                    </g>
                    <g id="Add-new-service-(inactive)" transform="translate(40.000000, 300.000000)">
                        <g id="fa-solid:folder" transform="translate(22.000000, 16.000000)" fill-rule="nonzero">
                            <g id="Icon" transform="translate(0.000000, 4.000000)" fill="#2E72CE">
                                <path d="M29,4 L17,4 L13,0 L3,0 C1.343125,0 0,1.343125 0,3 L0,21 C0,22.656875 1.343125,24 3,24 L29,24 C30.656875,24 32,22.656875 32,21 L32,7 C32,5.343125 30.656875,4 29,4 Z" id="Icon-Path"></path>
                            </g>
                            <rect id="ViewBox" x="0" y="0" width="32" height="32"></rect>
                        </g>
                        <g id="fa-solid:plus" fill-rule="nonzero">
                            <g id="Icon" transform="translate(24.000000, 18.000000)" fill="#FFFFFF">
                                <path d="M26,11 L17,11 L17,2 C17,0.895625 16.104375,0 15,0 L13,0 C11.895625,0 11,0.895625 11,2 L11,11 L2,11 C0.895625,11 0,11.895625 0,13 L0,15 C0,16.104375 0.895625,17 2,17 L11,17 L11,26 C11,27.104375 11.895625,28 13,28 L15,28 C16.104375,28 17,27.104375 17,26 L17,17 L26,17 C27.104375,17 28,16.104375 28,15 L28,13 C28,11.895625 27.104375,11 26,11 Z" id="Icon-Path"></path>
                            </g>
                            <rect id="ViewBox" x="24" y="16" width="28" height="32"></rect>
                        </g>
                        <text id="Add-a-service" font-family="HelveticaNeue-Medium, Helvetica Neue" font-size="18" font-weight="400" fill="#FFFFFF">
                            <tspan x="77" y="39">Add a service</tspan>
                        </text>
                    </g>
                    <g id="Current-view" transform="translate(40.000000, 236.000000)">
                        <g id="Rectangle">
                            <use fill="#F6F6F6" fill-rule="evenodd" xlink:href="#path-1"></use>
                            <use fill="black" fill-opacity="1" filter="url(#filter-2)" xlink:href="#path-1"></use>
                            <rect stroke="#B9B9B9" stroke-width="1" stroke-linejoin="square" x="0.5" y="0.5" width="319" height="63" rx="2"></rect>
                        </g>
                        <g id="fa-solid:folder" transform="translate(24.000000, 16.000000)" fill-rule="nonzero">
                            <g id="Icon" transform="translate(0.000000, 4.000000)" fill="#2E72CE">
                                <path d="M29,4 L17,4 L13,0 L3,0 C1.343125,0 0,1.343125 0,3 L0,21 C0,22.656875 1.343125,24 3,24 L29,24 C30.656875,24 32,22.656875 32,21 L32,7 C32,5.343125 30.656875,4 29,4 Z" id="Icon-Path"></path>
                            </g>
                            <rect id="ViewBox" x="0" y="0" width="32" height="32"></rect>
                        </g>
                        <text id="All-services" font-family="HelveticaNeue-Medium, Helvetica Neue" font-size="18" font-weight="400" fill="#2E72CE">
                            <tspan x="79" y="39">All services</tspan>
                        </text>
                    </g>
                </g>
            </g>
            <text id="Beat-your-toolchain" font-family="HelveticaNeue-Medium, Helvetica Neue" font-size="16" font-weight="400" fill="#FFFFFF">
                <tspan x="106" y="95">Beat your toolchain mess</tspan>
            </text>
            <g id="fa-solid:tools" stroke-width="1" fill-rule="evenodd" transform="translate(136.000000, 864.000000)">
                <g id="Icon" fill="#E2E2E2" fill-opacity="0.218586101" fill-rule="nonzero">
                    <path d="M125.311889,98.7570494 L96.0865909,69.5317512 C90.3213954,63.7665558 81.7110386,62.6434658 74.772838,66.0626509 L48.1680832,39.4578962 L48.1680832,23.9592538 L16.2224115,0 L0.249575561,15.9728359 L24.2088294,47.9185077 L39.7074717,47.9185077 L66.3122265,74.5232624 C62.9179989,81.461463 64.0161313,90.0718199 69.7813268,95.8370153 L99.006625,125.062314 C102.650428,128.706117 108.540411,128.706117 112.159257,125.062314 L125.311889,111.909681 C128.930735,108.265878 128.930735,102.375895 125.311889,98.7570494 L125.311889,98.7570494 Z M83.0337891,56.1545012 C90.0967774,56.1545012 96.7354874,58.8998323 101.726999,63.8913436 L106.568764,68.7331094 C110.512058,67.0110381 114.255692,64.6151127 117.500174,61.3706304 C126.759427,52.1113771 129.904079,39.0835328 126.959088,27.2536512 C126.410022,25.0074712 123.589818,24.233787 121.942619,25.8809857 L103.374197,44.4494074 L86.4280167,41.6292035 L83.6078129,24.683023 L102.176235,6.11460124 C103.823433,4.46740254 103.024791,1.6471987 100.753654,1.07317491 C88.9237723,-1.84685915 75.895928,1.29779292 66.6616323,10.5320887 C59.5487288,17.6449921 56.2044163,27.0290332 56.3791192,36.3881168 L76.8692727,56.8782703 C78.8908348,56.4040767 80.9872695,56.1545012 83.0337891,56.1545012 Z M57.1028883,76.6196972 L42.951954,62.4687629 L4.91663855,100.529036 C-1.32275047,106.768425 -1.32275047,116.876235 4.91663855,123.115624 C11.1560276,129.355013 21.2638378,129.355013 27.5032268,123.115624 L58.3507661,92.2680848 C56.4539918,87.3015312 55.8799681,81.8857415 57.1028883,76.6196972 L57.1028883,76.6196972 Z M16.2224115,117.799665 C12.928014,117.799665 10.232598,115.104249 10.232598,111.809851 C10.232598,108.490496 12.9030565,105.820038 16.2224115,105.820038 C19.5417664,105.820038 22.2122249,108.490496 22.2122249,111.809851 C22.2122249,115.104249 19.5417664,117.799665 16.2224115,117.799665 Z" id="Icon-Shape"></path>
                </g>
                <rect id="ViewBox" fill-rule="nonzero" x="0" y="0" width="127.498039" height="127.498039"></rect>
            </g>
        </g>
        <g id="Content" transform="translate(448.000000, 159.000000)">
            <text id="Hetzner-Online-AG" font-family="HelveticaNeue-Bold, Helvetica Neue" font-size="32" font-weight="bold" fill="#000000">
                <tspan x="0" y="31">Hetzner Online AG</tspan>
            </text>
            <text id="Last-updated-on-24th" font-family="HelveticaNeue-Bold, Helvetica Neue" font-size="12" font-weight="bold" fill="#7E7E7E">
                <tspan x="0" y="50">Last updated on 24th of April.</tspan>
            </text>
            <g id="Logo_Hetzner" transform="translate(464.000000, 0.000000)" fill-rule="nonzero">
                <g id="Group" fill="#D20C39">
                    <path d="M414.655171,46.035 L370.22087,46.0216667 L370.22087,36.3958333 L405.84412,36.3941667 C407.710341,36.3941667 409.24396,34.8558333 409.249766,32.9816667 L409.270502,26.4683333 C409.280455,24.5933333 407.75513,23.0541667 405.887251,23.0541667 L370.22004,23.04 L370.22004,13.4066667 L414.651853,13.4033333 C416.518903,13.4033333 418.042569,11.8683333 418.042569,9.99083333 L418.042569,3.42916667 C418.042569,1.555 416.518903,0.0208333333 414.651853,0.0208333333 L360.106783,0.0208333333 C358.240562,0.0208333333 356.714408,1.555 356.714408,3.42916667 L356.714408,55.9858333 C356.714408,57.8616667 358.240562,59.395 360.106783,59.395 L414.647706,59.395 C416.517244,59.395 418.039251,57.8616667 418.042569,55.9858333 L418.047545,49.44 C418.048375,47.5683333 416.52305,46.035 414.655171,46.035 Z" id="Path"></path>
                    <path d="M61.1705686,0.0641666667 L54.4073846,0.0641666667 C52.5411639,0.0641666667 51.01501,1.6 51.01501,3.47083333 L51.0067157,22.9533333 L13.6715184,22.9533333 L13.6590769,3.4075 C13.6590769,1.535 12.1279465,0 10.2633846,0 L3.40896321,0 C1.54274247,0 0.0157591973,1.535 0.0157591973,3.4075 L0.0157591973,56.0841667 C0.0157591973,57.9583333 1.54274247,59.495 3.40896321,59.495 L10.2633846,59.495 C12.1279465,59.495 13.6599064,57.9583333 13.6599064,56.0841667 L13.6657124,36.3066667 L51.0075452,36.3066667 L51.0158395,56.0841667 C51.0158395,57.9583333 52.5419933,59.4875 54.408214,59.4841667 L61.171398,59.4741667 C63.0425953,59.47 64.5679197,57.9341667 64.5679197,56.0541667 L64.5679197,3.47083333 C64.5670903,1.6 63.0417659,0.0641666667 61.1705686,0.0641666667 Z" id="Path"></path>
                    <path d="M131.457418,46.035 L87.0231171,46.0316667 L87.0231171,36.4108333 L122.648027,36.3933333 C124.512589,36.3933333 126.044548,34.855 126.052013,32.9808333 L126.070261,26.4675 C126.077726,24.5925 124.558207,23.0533333 122.690328,23.0533333 L87.0222876,23.0441667 L87.0222876,13.41 L131.451612,13.4033333 C133.321151,13.4033333 134.847304,11.8683333 134.847304,9.99083333 L134.847304,3.42916667 C134.847304,1.555 133.321151,0.0208333333 131.451612,0.0208333333 L76.9098595,0.0208333333 C75.0428094,0.0208333333 73.5141672,1.555 73.5141672,3.42916667 L73.5141672,55.9858333 C73.5141672,57.8616667 75.0428094,59.395 76.9098595,59.395 L131.448294,59.395 C133.317833,59.395 134.841498,57.8616667 134.848134,55.9858333 L134.848134,49.44 C134.851452,47.5683333 133.323639,46.035 131.457418,46.035 Z" id="Path"></path>
                    <path d="M201.974849,0.0908333333 L145.482274,0.0908333333 C143.612736,0.0908333333 142.08907,1.62333333 142.08907,3.4975 L142.08907,10.0525 C142.08907,11.9291667 143.612736,13.4608333 145.482274,13.4608333 L166.984455,13.4608333 L166.981137,56.0425 C166.981137,57.92 168.504803,59.4525 170.372682,59.4525 L177.648455,59.4525 C179.516334,59.4525 181.04,57.92 181.04,56.0425 L181.047465,13.4608333 L201.97402,13.4608333 C203.843559,13.4608333 205.367224,11.9291667 205.367224,10.0525 L205.367224,3.49833333 C205.368883,1.62416667 203.844388,0.0908333333 201.974849,0.0908333333 Z" id="Path"></path>
                    <path d="M475.70713,37.8066667 C479.410542,36.9208333 483.007786,35.5 485.447973,32.5408333 C485.478662,32.5066667 485.510181,32.4866667 485.54087,32.4516667 C488.502769,28.8475 490.014823,24.5391667 490.014823,19.6416667 C490.014823,15.5458333 488.994622,11.895 486.98491,8.80083333 C483.591706,3.49416667 478.835746,0.640833333 472.851398,0.323333333 C472.820709,0.32 469.93097,0.245 469.93097,0.245 C468.069726,0.19 465.013271,0.141666667 463.14705,0.139166667 L429.497846,0.0733333333 C427.626649,0.0683333333 426.104642,1.6025 426.104642,3.47666667 L426.104642,56.07 C426.104642,57.9483333 427.626649,59.4808333 429.497846,59.4808333 L435.917645,59.4808333 C437.787184,59.4808333 439.314167,57.9483333 439.314167,56.07 L439.296749,38.9266667 L455.098247,38.9025 C456.970274,38.9025 459.557271,40.0016667 460.852843,41.3533333 L476.363211,56.9983333 C477.658783,58.3441667 479.810328,59.4466667 481.672401,59.4466667 L493.579719,59.45 C495.441793,59.45 495.896321,58.3591667 494.58499,57.0258333 C494.584161,57.0258333 476.156682,38.2675 475.70713,37.8066667 Z M471.383304,25.5666667 L439.33988,25.5833333 L439.33988,13.475 L471.383304,13.4533333 C474.126234,13.4533333 476.362381,15.7083333 476.362381,18.4616667 L476.362381,19.2575 C476.366528,19.3708333 476.39307,19.4633333 476.39307,19.5783333 C476.39307,19.6783333 476.369846,19.7716667 476.362381,19.8716667 L476.362381,20.5641667 C476.362381,23.3141667 474.125405,25.5666667 471.383304,25.5666667 Z" id="Shape"></path>
                    <path d="M272.693833,45.8333333 C272.693833,45.8333333 235.516227,45.8258333 234.859318,45.8258333 L272.132308,12.9233333 C273.534876,11.685 274.66705,9.1425 274.660415,7.265 L274.656268,3.47 C274.649632,1.59916667 273.112696,0.0633333333 271.252281,0.0633333333 L216.024589,0.0633333333 C214.158368,0.0633333333 212.629726,1.59916667 212.629726,3.47 L212.629726,10.0666667 C212.629726,11.9416667 214.158368,13.4716667 216.024589,13.4716667 C216.024589,13.4716667 250.978488,13.465 251.625445,13.465 C251.172575,13.8608333 214.562301,46.1141667 214.562301,46.1141667 C213.159732,47.355 212.014288,49.9016667 212.01014,51.775 L212.01014,56.07 C212.01014,57.9441667 213.538783,59.4775 215.401686,59.4775 L272.694662,59.4775 C274.560883,59.4775 276.087037,57.9441667 276.087037,56.07 L276.087037,49.2433333 C276.086207,47.3658333 274.560054,45.8333333 272.693833,45.8333333 Z" id="Path"></path>
                </g>
                <path d="M414.626051,45.7241926 L370.4331,45.7109433 L370.4331,36.1457705 L405.862859,36.1441143 C407.718943,36.1441143 409.244232,34.6154753 409.250006,32.7531193 L409.27063,26.280832 C409.280529,24.417648 407.763489,22.8881809 405.905755,22.8881809 L370.432275,22.8741035 L370.432275,13.3014779 L414.622751,13.2981656 C416.479661,13.2981656 417.99505,11.7728389 417.99505,9.90717063 L417.99505,3.38685455 C417.99505,1.52449859 416.479661,0 414.622751,0 L360.373949,0 C358.517864,0 357,1.52449859 357,3.38685455 L357,55.6123174 C357,57.4763295 358.517864,59 360.373949,59 L414.618627,59 C416.478011,59 417.99175,57.4763295 417.99505,55.6123174 L418,49.1077348 C418.000825,47.2478631 416.483785,45.7241926 414.626051,45.7241926 Z" id="Path" fill="#D20C39"></path>
                <path d="M61.5790792,0.0636327983 L54.7689748,0.0636327983 C52.8898069,0.0636327983 51.3530651,1.58668796 51.3530651,3.44195591 L51.3447133,22.762361 L13.7504979,22.762361 L13.7379701,3.37914951 C13.7379701,1.52222876 12.1962173,0 10.3187197,0 L3.41674483,0 C1.53757693,0 0,1.52222876 0,3.37914951 L0,55.6175449 C0,57.4761184 1.53757693,59 3.41674483,59 L10.3187197,59 C12.1962173,59 13.7388053,57.4761184 13.7388053,55.6175449 L13.7446516,36.0045942 L51.3455485,36.0045942 L51.3539003,55.6175449 C51.3539003,57.4761184 52.8906421,58.9925624 54.76981,58.9892568 L61.5799144,58.97934 C63.4640934,58.975208 65,57.4521528 65,55.5877945 L65,3.44195591 C64.9991648,1.58668796 63.4632583,0.0636327983 61.5790792,0.0636327983 Z" id="Path" fill="#D20C39"></path>
                <path d="M131.627742,45.7241926 L87.4353917,45.7208803 L87.4353917,36.1606759 L122.866319,36.1432862 C124.720728,36.1432862 126.244346,34.6146472 126.25177,32.7522913 L126.269918,26.2800039 C126.277343,24.4168199 124.766098,22.8873528 122.90839,22.8873528 L87.4345668,22.8782439 L87.4345668,13.3047902 L131.621967,13.2981656 C133.481326,13.2981656 134.99917,11.7728389 134.99917,9.90717063 L134.99917,3.38685455 C134.99917,1.52449859 133.481326,0 131.621967,0 L77.3772023,0 C75.5203185,0 74,1.52449859 74,3.38685455 L74,55.6123174 C74,57.4763295 75.5203185,59 77.3772023,59 L131.618668,59 C133.478026,59 134.993395,57.4763295 134.999995,55.6123174 L134.999995,49.1077348 C135.003294,47.2478631 133.483801,45.7241926 131.627742,45.7241926 Z" id="Path" fill="#D20C39"></path>
                <path d="M201.622536,0 L145.378288,0 C143.516968,0 142,1.5231631 142,3.38591122 L142,9.90097425 C142,11.7662071 143.516968,13.288542 145.378288,13.288542 L166.785951,13.288542 L166.782647,55.6107758 C166.782647,57.4768369 168.299615,59 170.159284,59 L177.403074,59 C179.262743,59 180.779711,57.4768369 180.779711,55.6107758 L180.787143,13.288542 L201.62171,13.288542 C203.483031,13.288542 204.999999,11.7662071 204.999999,9.90097425 L204.999999,3.38673948 C205.00165,1.52399135 203.483857,0 201.622536,0 Z" id="Path" fill="#D20C39"></path>
                <path d="M475.437582,37.4745096 C479.128681,36.5947527 482.713966,35.1836658 485.146041,32.2447978 C485.176628,32.2108655 485.208041,32.1910027 485.238628,32.1562428 C488.190681,28.5767993 489.697707,24.2980194 489.697707,19.4341144 C489.697707,15.3663768 488.680898,11.7405868 486.677868,8.66764488 C483.295944,3.39737986 478.555796,0.563619276 472.591343,0.248297202 C472.560757,0.244986734 469.680625,0.170501204 469.680625,0.170501204 C467.825568,0.115878483 464.779275,0.067876697 462.919258,0.065393846 L429.381923,1.21034616e-05 C427.516947,-0.0049535985 426,1.51868929 426,3.37999991 L426,55.6125636 C426,57.4780123 427.516947,59 429.381923,59 L435.780379,59 C437.643703,59 439.165609,57.4780123 439.165609,55.6125636 L439.148249,38.5868268 L454.897214,38.5628259 C456.763017,38.5628259 459.341414,39.6544528 460.632678,40.9968475 L476.091481,56.534529 C477.382746,57.8711304 479.527138,58.9660677 481.383021,58.9660677 L493.250752,58.9693782 C495.106635,58.9693782 495.559652,57.8860275 494.252681,56.5618403 C494.251854,56.5618403 475.885639,37.9321818 475.437582,37.4745096 Z M471.128131,25.3184712 L439.191236,25.3350235 L439.191236,13.3097486 L471.128131,13.2882306 C473.861941,13.2882306 476.090654,15.5277621 476.090654,18.2622087 L476.090654,19.0525829 C476.094788,19.1651388 476.121241,19.2570043 476.121241,19.3712155 C476.121241,19.4705295 476.098094,19.5632226 476.090654,19.6625367 L476.090654,20.3502864 C476.090654,23.0814225 473.861115,25.3184712 471.128131,25.3184712 Z" id="Shape" fill="#D20C39"></path>
                <path d="M272.610868,45.4509446 C272.610868,45.4509446 235.477878,45.4434969 234.821757,45.4434969 L272.050017,12.770355 C273.450902,11.5406539 274.581717,9.01587725 274.57509,7.151465 L274.570948,3.38291934 C274.56432,1.52512728 273.029228,0 271.171046,0 L216.009631,0 C214.145649,0 212.618842,1.52512728 212.618842,3.38291934 L212.618842,9.93360169 C212.618842,11.7955314 214.145649,13.314866 216.009631,13.314866 C216.009631,13.314866 250.921583,13.3082458 251.567763,13.3082458 C251.115437,13.7013198 214.549098,45.7298203 214.549098,45.7298203 C213.148212,46.962004 212.004142,49.4909183 212,51.3511929 L212,55.6162531 C212,57.4773553 213.526808,59 215.387475,59 L272.611696,59 C274.475678,59 276,57.4773553 276,55.6162531 L276,48.8371741 C275.999172,46.9727618 274.474849,45.4509446 272.610868,45.4509446 Z" id="Path" fill="#D20C39"></path>
                <rect id="Rectangle" fill="#575756" x="0" y="93" width="276" height="3"></rect>
                <rect id="Rectangle" fill="#575756" x="446" y="93" width="49" height="3"></rect>
                <path d="M291.095595,73 C285.421626,73 283,75.5854076 283,81.6375546 L283,87.3624454 C283,93.4171033 285.421626,96 291.095595,96 L302.906045,96 C308.580834,96 311,93.4171033 311,87.3624454 L311,81.6375546 C311,75.5854076 308.580834,73 302.906045,73 L291.095595,73 Z M287.347938,88.43377 L287.347938,80.5695779 C287.347938,77.9431587 288.477156,76.9203785 291.377694,76.9203785 L302.627226,76.9203785 C305.526945,76.9203785 306.656162,77.9439956 306.656162,80.5695779 L306.656162,88.43377 C306.656162,91.0627001 305.526945,92.0854803 302.627226,92.0854803 L291.377694,92.0854803 C288.477156,92.0854803 287.347938,91.0618632 287.347938,88.43377 Z" id="Shape" fill="#575756"></path>
                <path d="M339.537587,74 C339.537587,74 339.537587,87.9413141 339.537587,90.901014 C337.18088,88.706162 321.375447,74 321.375447,74 L316,74 L316,96 L320.460729,96 C320.460729,96 320.460729,82.0570516 320.460729,79.098986 C322.818278,81.293838 338.62371,96 338.62371,96 L344,96 L344,74 L339.537587,74 Z" id="Path" fill="#575756"></path>
                <path d="M350,74 L350,96 L370,96 L370,92.1782119 C370,92.1782119 355.687116,92.1782119 354.287795,92.1782119 C354.287795,90.7457564 354.287795,74 354.287795,74 L350,74 L350,74 Z" id="Path" fill="#575756"></path>
                <rect id="Rectangle" fill="#575756" x="374" y="74" width="4" height="22"></rect>
                <path d="M407.533913,74 C407.533913,74 407.533913,87.9413141 407.533913,90.901014 C405.180016,88.706162 389.377327,74 389.377327,74 L384,74 L384,96 L388.464403,96 C388.464403,96 388.464403,82.0570516 388.464403,79.098986 C390.819984,81.293838 406.620988,96 406.620988,96 L412,96 L412,74 L407.533913,74 Z" id="Path" fill="#575756"></path>
                <path d="M417,74.0008171 L417,96 L439,96 L439,92.1783539 C439,92.1783539 422.824064,92.1783539 421.379829,92.1783539 C421.379829,91.090774 421.379829,87.6915763 421.379829,86.6039964 C422.817451,86.6039964 438.20224,86.6039964 438.20224,86.6039964 L438.20224,82.7766305 C438.20224,82.7766305 422.818277,82.7766305 421.379829,82.7766305 C421.379829,81.7315406 421.379829,78.8700045 421.379829,77.8240975 C422.822411,77.8240975 438.885916,77.8240975 438.885916,77.8240975 L438.885916,74 L417,74 L417,74.0008171 Z" id="Path" fill="#575756"></path>
                <path d="M348.995836,20.5954251 C348.986675,20.2321654 348.990006,19.7977432 349,19.3236025 C348.993337,15.2731329 347.968958,11.6645327 345.957677,8.60289074 C342.550575,3.33355667 337.65854,0.314943181 331.648849,0.000504275836 C331.618035,-0.00280560738 286.413764,0.0112613963 286.413764,0.0112613963 C284.540733,0.0112613963 283,1.53629009 283,3.39396204 L283,55.6081972 C283,57.4749713 284.540733,58.9933802 286.413764,58.9933802 L293.62606,59 C295.478271,59 296.996517,57.5088976 297.030663,55.6719124 L297.032329,13.315337 L323.87023,13.313682 L324.419897,13.315337 L325.953967,13.315337 C330.95427,13.315337 335.042626,17.3790461 335.042626,22.3488357 L335.042626,23.9086182 C335.044291,23.9392346 335.049288,23.9731609 335.049288,23.9971576 C335.049288,24.9082029 335.049288,25.6587189 335.044291,25.6669936 L335.044291,55.5974401 C335.044291,57.4575944 336.581693,58.9801407 338.45639,58.9801407 L345.591233,58.9801407 C347.468428,58.9801407 349,57.4575944 349,55.5974401 L349,32.9644587 L348.996669,26.9545382 L348.996669,20.5954251 L348.995836,20.5954251 Z" id="Path" fill="#D20C39"></path>
            </g>
            <text id="Wozu-benutzen-wir-He" font-family="HelveticaNeue-Bold, Helvetica Neue" font-size="18" font-weight="bold" fill="#000000">
                <tspan x="0" y="180">Wozu benutzen wir Hetzner?</tspan>
                <tspan x="0" y="202" font-family="HelveticaNeue, Helvetica Neue" font-weight="normal"></tspan>
                <tspan x="0" y="223" font-family="HelveticaNeue, Helvetica Neue" font-weight="normal">Horsefish, "loosejaw electric stargazer fusilier fish." Blackfish sea dragon lancetfish rock </tspan>
                <tspan x="0" y="244" font-family="HelveticaNeue, Helvetica Neue" font-weight="normal">beauty sandburrower pirarucu northern clingfish quillback hammerhead shark slender </tspan>
                <tspan x="0" y="265" font-family="HelveticaNeue, Helvetica Neue" font-weight="normal">barracudina. Pacific salmon golden loach deep sea bonefish; trout cod slimy sculpin, </tspan>
                <tspan x="0" y="286" font-family="HelveticaNeue, Helvetica Neue" font-weight="normal">arrowtooth eel grideye. Freshwater eel sea devil emperor bleak garibaldi shovelnose </tspan>
                <tspan x="0" y="307" font-family="HelveticaNeue, Helvetica Neue" font-weight="normal">sturgeon lancetfish fusilier fish snakehead, "atka mackerel: sand dab."</tspan>
                <tspan x="0" y="328" font-family="HelveticaNeue, Helvetica Neue" font-weight="normal"></tspan>
                <tspan x="0" y="349" font-family="HelveticaNeue, Helvetica Neue" font-weight="normal"></tspan>
                <tspan x="0" y="370">Wie buchst du eine neue Domain?</tspan>
                <tspan x="0" y="392" font-family="HelveticaNeue, Helvetica Neue" font-weight="normal"></tspan>
                <tspan x="0" y="413" font-family="HelveticaNeue, Helvetica Neue" font-weight="normal">Antarctic icefish longfin dragonfish yellowtail barracuda bobtail snipe eel oldwife </tspan>
                <tspan x="0" y="434" font-family="HelveticaNeue, Helvetica Neue" font-weight="normal">deepwater stingray? Scaleless black dragonfish redtooth triggerfish Celebes </tspan>
                <tspan x="0" y="455" font-family="HelveticaNeue, Helvetica Neue" font-weight="normal">rainbowfish. Queen parrotfish cuchia blackfish porgy dogfish sawtooth eel yellow-eye </tspan>
                <tspan x="0" y="476" font-family="HelveticaNeue, Helvetica Neue" font-weight="normal">mullet bandfish boxfish, antenna codlet, "ronquil, sea bass spearfish tripod fish; red </tspan>
                <tspan x="0" y="497" font-family="HelveticaNeue, Helvetica Neue" font-weight="normal">velvetfish."</tspan>
            </text>
        </g>
        <g id="Application-header,-on-page" transform="translate(448.000000, 32.000000)">
            <g id="Application-header">
                <g id="Action-Icons" transform="translate(769.000000, 0.000000)">
                    <g id="fa-solid:cloud-moon" filter="url(#filter-3)" transform="translate(154.000000, 0.000000)" fill-rule="nonzero">
                        <g id="Icon" fill="#2E72CE">
                            <path d="M21.425,22.04375 C21.78125,21.44375 22,20.75 22,20 C22,17.79375 20.20625,16 18,16 C16.925,16 15.95,16.43125 15.23125,17.11875 C14.2125,15.26875 12.2625,14 10,14 C6.6875,14 4,16.6875 4,20 C4,20.125 4.03125,20.2375 4.0375,20.35625 C1.69375,21.175 0,23.38125 0,26 C0,29.3125 2.6875,32 6,32 L21,32 C23.7625,32 26,29.7625 26,27 C26,24.38125 23.98125,22.2625 21.425,22.04375 Z M35.33125,18.65 C29.5125,19.75625 24.175,15.29375 24.175,9.41875 C24.175,6.03125 25.9875,2.91875 28.93125,1.24375 C29.3875,0.9875 29.26875,0.3 28.75625,0.2 C28.025,0.06875 27.29375,0 26.5625,0 C19.94375,0 14.56875,5.36875 14.56875,12 C14.56875,12.53125 14.6125,13.05 14.68125,13.5625 C15.05,13.83125 15.40625,14.11875 15.725,14.45 C16.4375,14.15625 17.20625,14 18,14 C21.30625,14 24,16.69375 24,20 C24,20.225 23.9875,20.45 23.9625,20.66875 C25.4375,21.34375 26.6125,22.5125 27.30625,23.95625 C30.70625,23.74375 33.7875,22.125 35.875,19.55625 C36.20625,19.15 35.84375,18.55 35.33125,18.65 Z" id="Icon-Shape"></path>
                        </g>
                        <rect id="ViewBox" x="0" y="0" width="36" height="32"></rect>
                    </g>
                    <g id="Actions-Tooltip-Startpage-" transform="translate(0.000000, 39.000000)">
                        <polygon id="Triangle" fill="#7A7A7A" points="29.5 0 38 8 21 8"></polygon>
                        <rect id="Rectangle" fill="#7A7A7A" x="0" y="8" width="60" height="25" rx="2"></rect>
                        <text id="Print" font-family="HelveticaNeue-Medium, Helvetica Neue" font-size="12" font-weight="400" fill="#FFFFFF">
                            <tspan x="16.498" y="25">Print</tspan>
                        </text>
                    </g>
                    <g id="fa-solid:print" filter="url(#filter-4)" transform="translate(14.000000, 0.000000)" fill-rule="nonzero">
                        <g id="Icon" fill="#2E72CE">
                            <path d="M28,12 L28,4.828125 C28,4.2975 27.789375,3.789375 27.414375,3.41375 L24.585625,0.585625 C24.210625,0.210625 23.701875,0 23.17125,0 L6,0 C4.895625,0 4,0.895625 4,2 L4,12 C1.790625,12 0,13.790625 0,16 L0,23 C0,23.5525 0.4475,24 1,24 L4,24 L4,30 C4,31.104375 4.895625,32 6,32 L26,32 C27.104375,32 28,31.104375 28,30 L28,24 L31,24 C31.5525,24 32,23.5525 32,23 L32,16 C32,13.790625 30.209375,12 28,12 Z M24,28 L8,28 L8,22 L24,22 L24,28 Z M24,14 L8,14 L8,4 L20,4 L20,7 C20,7.5525 20.4475,8 21,8 L24,8 L24,14 Z M27,18.5 C26.171875,18.5 25.5,17.828125 25.5,17 C25.5,16.17125 26.171875,15.5 27,15.5 C27.828125,15.5 28.5,16.17125 28.5,17 C28.5,17.828125 27.828125,18.5 27,18.5 Z" id="Icon-Shape"></path>
                        </g>
                        <rect id="ViewBox" x="0" y="0" width="32" height="32"></rect>
                    </g>
                    <g id="fa-solid:pencil-alt" filter="url(#filter-5)" transform="translate(62.000000, 0.000000)" fill-rule="nonzero">
                        <g id="Icon" fill="#2E72CE">
                            <path d="M31.11875,8.88125 L28.2375,11.7625 C27.94375,12.05625 27.46875,12.05625 27.175,11.7625 L20.2375,4.825 C19.94375,4.53125 19.94375,4.05625 20.2375,3.7625 L23.11875,0.88125 C24.2875,-0.2875 26.1875,-0.2875 27.3625,0.88125 L31.11875,4.6375 C32.29375,5.80625 32.29375,7.70625 31.11875,8.88125 Z M17.7625,6.2375 L1.35,22.65 L0.025,30.24375 C-0.15625,31.26875 0.7375,32.15625 1.7625,31.98125 L9.35625,30.65 L25.76875,14.2375 C26.0625,13.94375 26.0625,13.46875 25.76875,13.175 L18.83125,6.2375 C18.53125,5.94375 18.05625,5.94375 17.7625,6.2375 Z M7.75625,21.24375 C7.4125,20.9 7.4125,20.35 7.75625,20.00625 L17.38125,10.38125 C17.725,10.0375 18.275,10.0375 18.61875,10.38125 C18.9625,10.725 18.9625,11.275 18.61875,11.61875 L8.99375,21.24375 C8.65,21.5875 8.1,21.5875 7.75625,21.24375 L7.75625,21.24375 Z M5.5,26.5 L8.5,26.5 L8.5,28.76875 L4.46875,29.475 L2.525,27.53125 L3.23125,23.5 L5.5,23.5 L5.5,26.5 Z" id="Icon-Shape"></path>
                        </g>
                        <rect id="ViewBox" x="0" y="0" width="32" height="32"></rect>
                    </g>
                    <g id="fa-solid:trash-alt" filter="url(#filter-6)" transform="translate(110.000000, 0.000000)" fill-rule="nonzero">
                        <g id="Icon" fill="#2E72CE">
                            <path d="M2,29 C2,30.6568542 3.34314575,32 5,32 L23,32 C24.6568542,32 26,30.6568542 26,29 L26,8 L2,8 L2,29 Z M19,13 C19,12.4477153 19.4477153,12 20,12 C20.5522847,12 21,12.4477153 21,13 L21,27 C21,27.5522847 20.5522847,28 20,28 C19.4477153,28 19,27.5522847 19,27 L19,13 Z M13,13 C13,12.4477153 13.4477153,12 14,12 C14.5522847,12 15,12.4477153 15,13 L15,27 C15,27.5522847 14.5522847,28 14,28 C13.4477153,28 13,27.5522847 13,27 L13,13 Z M7,13 C7,12.4477153 7.44771525,12 8,12 C8.55228475,12 9,12.4477153 9,13 L9,27 C9,27.5522847 8.55228475,28 8,28 C7.44771525,28 7,27.5522847 7,27 L7,13 Z M27,2 L19.5,2 L18.9125,0.83125 C18.6586518,0.321589211 18.1381294,-0.000408366605 17.56875,6.26917883e-16 L10.425,6.26917883e-16 C9.85669149,-0.00218469017 9.33715088,0.320707374 9.0875,0.83125 L8.5,2 L1,2 C0.44771525,2 6.76353751e-17,2.44771525 0,3 L0,5 C6.76353751e-17,5.55228475 0.44771525,6 1,6 L27,6 C27.5522847,6 28,5.55228475 28,5 L28,3 C28,2.44771525 27.5522847,2 27,2 Z" id="Icon-Shape"></path>
                        </g>
                        <rect id="ViewBox" x="0" y="0" width="28" height="32"></rect>
                    </g>
                </g>
                <text id="Welcome-back,-Staffb" font-family="HelveticaNeue-Medium, Helvetica Neue" font-size="16" font-weight="400" fill="#7E7E7E">
                    <tspan x="0" y="16">Welcome back, </tspan>
                    <tspan x="0" y="35" font-size="24">Staffbase GmbH</tspan>
                </text>
            </g>
        </g>
        <g id="Application-copyright" transform="translate(1129.000000, 976.000000)">
            <g id="Copyright">
                <g id="fa-solid:user-astronaut" transform="translate(267.000000, 0.000000)" fill-rule="nonzero">
                    <g id="Icon" fill="#BDBDBD">
                        <path d="M4,14 L4.84375,14 C6.3875,17.53125 9.9,20 14,20 C18.1,20 21.6125,17.53125 23.15625,14 L24,14 C24.55,14 25,13.55 25,13 L25,7 C25,6.45 24.55,6 24,6 L23.15625,6 C21.6125,2.46875 18.1,0 14,0 C9.9,0 6.3875,2.46875 4.84375,6 L4,6 C3.45,6 3,6.45 3,7 L3,13 C3,13.55 3.45,14 4,14 Z M6.5,8.5 C6.5,7.11875 7.84375,6 9.5,6 L18.5,6 C20.15625,6 21.5,7.11875 21.5,8.5 L21.5,10 C21.5,13.3125 18.8125,16 15.5,16 L12.5,16 C9.1875,16 6.5,13.3125 6.5,10 L6.5,8.5 Z M11,13 L11.75,10.75 L14,10 L11.75,9.25 L11,7 L10.25,9.25 L8,10 L10.25,10.75 L11,13 Z M20.475,20.0875 C18.60625,21.29375 16.3875,22 14,22 C11.6125,22 9.39375,21.29375 7.525,20.0875 C3.30625,20.53125 0,24.0625 0,28.4 L0,29 C0,30.65625 1.34375,32 3,32 L8,32 L8,28 C8,26.89375 8.89375,26 10,26 L18,26 C19.10625,26 20,26.89375 20,28 L20,32 L25,32 C26.65625,32 28,30.65625 28,29 L28,28.4 C28,24.0625 24.69375,20.53125 20.475,20.0875 Z M17,28 C16.45,28 16,28.45 16,29 C16,29.55 16.45,30 17,30 C17.55,30 18,29.55 18,29 C18,28.45 17.55,28 17,28 Z M11,28 C10.45,28 10,28.45 10,29 L10,32 L12,32 L12,29 C12,28.45 11.55,28 11,28 Z" id="Icon-Shape"></path>
                    </g>
                    <rect id="ViewBox" x="0" y="0" width="28" height="32"></rect>
                </g>
                <text id="Brought-to-you-by-Jo" font-family="HelveticaNeue-Medium, Helvetica Neue" font-size="12" font-weight="400" fill="#BDBDBD">
                    <tspan x="0" y="21">Brought to you by Jonas, Sebastian &amp; Renick</tspan>
                </text>
            </g>
        </g>
    </g>
</svg>