<svg id="b30fd5b9-b523-4408-8482-84c876c03c00" data-name="Ebene 1" xmlns="http://www.w3.org/2000/svg" viewBox="0 0 878.5 953.7"><defs><style>.b52eae69-8ffb-4efe-bb98-ae45e0864951,.f4d56202-41be-49fe-9448-edcf5545c51b{stroke:#000;stroke-miterlimit:10;}.f4d56202-41be-49fe-9448-edcf5545c51b{stroke-width:1.08px;}.b52eae69-8ffb-4efe-bb98-ae45e0864951{stroke-width:0.88px;}</style></defs><title>icon-into-nightmode</title><path class="f4d56202-41be-49fe-9448-edcf5545c51b" d="M946.4,678.2l-4.9,2.1c-88.4,36.2-194.7,38-302-11.6-58.7-27.2-127.8-98.2-154.1-157.3-38.2-85.7-43.7-170.6-25.3-246.1.5-1.7.9-3.4,1.4-5.2,12-46-36.1-84.4-78-62l-.9.5C241.3,274.5,145.3,423.7,145.3,595.3c0,248.5,201.4,450,450,450,195.3,0,361.5-124.4,423.8-298.3l.3-.8C1035.3,701.4,990.1,659.5,946.4,678.2ZM424.9,912C370.1,886.1,304,819.8,278.2,764.9,202.5,603.8,242.7,444.8,342,344.5a8.4,8.4,0,0,1,14.4,5.8h0c0,248.6,201.4,450.1,450,450.1a455.2,455.2,0,0,0,66.4-4.9c7.3-1.1,12.4,7.3,7.9,13.2C785.2,936.2,606.3,997.7,424.9,912Z" transform="translate(-144.7 -92.1)"/><path class="b52eae69-8ffb-4efe-bb98-ae45e0864951" d="M844.7,432.3,770.2,355a7.3,7.3,0,0,0-6.1-2L658.2,370.6a6.8,6.8,0,0,1-7.1-10l50.4-94.7a6.6,6.6,0,0,0,0-6.4l-49.4-95.3a6.9,6.9,0,0,1,7.3-9.9L765.1,173a6.9,6.9,0,0,0,6.1-1.9l75.3-76.5a6.9,6.9,0,0,1,11.7,3.9L873,204.8a7.3,7.3,0,0,0,3.8,5.2l96,48a6.9,6.9,0,0,1-.1,12.3l-96.5,47a6.9,6.9,0,0,0-3.8,5.1l-16,106.2A6.8,6.8,0,0,1,844.7,432.3Z" transform="translate(-144.7 -92.1)"/></svg>