<svg id="a9698a5e-ad5b-4057-84eb-4a16b27504fd" data-name="Ebene 1" xmlns="http://www.w3.org/2000/svg" viewBox="0 0 1058.3 721.7"><title>icon-editpop-heading3-1</title><path d="M491.3,947.4v-42h13.2a189.7,189.7,0,0,0,32-2.5,62.4,62.4,0,0,0,25.9-10c7.3-5,13.2-12.3,17.5-21.7s6.6-22,6.6-37.6V599.2H261.7V833.6c0,15.6,2.2,28.2,6.6,37.6s10.2,16.7,17.6,21.7,16,8.4,26.1,10a191.2,191.2,0,0,0,31.7,2.5h13.2v42H65.9v-42H78.6a190.5,190.5,0,0,0,32-2.5,63.8,63.8,0,0,0,26.1-10c7.5-5,13.3-12.3,17.6-21.7s6.3-22,6.3-37.6V343.3q0-22.1-6.6-35.4c-4.4-9-10.3-15.9-17.8-20.8a63.3,63.3,0,0,0-26.1-9.5,210.5,210.5,0,0,0-31.5-2.2H65.9v-42h291v42H343.7a202.8,202.8,0,0,0-31.7,2.4c-10.1,1.7-18.8,5-26.1,10s-13.2,12.3-17.6,21.8-6.6,21.9-6.6,37.6V549.4H586.5V347.2c0-15.7-2.2-28.2-6.6-37.6s-10.2-16.7-17.5-21.8a65.3,65.3,0,0,0-25.9-10,201.1,201.1,0,0,0-32-2.4H491.3v-42H782.4v42H769.7a200.2,200.2,0,0,0-32,2.4,66.6,66.6,0,0,0-26.2,10c-7.4,5.1-13.3,12.3-17.5,21.8s-6.4,21.9-6.4,37.6V838.5q0,21.9,6.6,35.4c4.4,8.9,10.3,15.7,17.8,20.3a70.7,70.7,0,0,0,26.2,9,210.5,210.5,0,0,0,31.5,2.2h12.7v42Z" transform="translate(-65.9 -233.4)"/><path d="M856.8,876.7c17.5,11.2,58.1,28.7,100.8,28.7,79.1,0,103.6-50.4,102.9-88.2-.7-63.7-58.1-91-117.6-91H908.6V680h34.3c44.8,0,101.5-23.1,101.5-77,0-36.4-23.1-68.6-79.8-68.6-36.4,0-71.4,16.1-91,30.1l-16.1-44.8c23.8-17.5,70-35,119-35,89.6,0,130.2,53.2,130.2,108.5,0,46.9-28,86.8-84,107.1v1.4c56,11.2,101.5,53.2,101.5,116.9,0,72.8-56.7,136.5-165.9,136.5-51.1,0-95.9-16.1-118.3-30.8Z" transform="translate(-65.9 -233.4)"/></svg>