<svg id="bf91b0cf-8294-4b34-ba45-bb3ae7210c18" data-name="Ebene 1" xmlns="http://www.w3.org/2000/svg" viewBox="0 0 962.9 720.8"><title>icon-editpop-heading3-2</title><path d="M708.7,947.4H618.8V614.5h-366V947.4H162.9v-714h89.9v302h366v-302h89.9Z" transform="translate(-162.9 -233.4)"/><path d="M1110.5,564.6a126.9,126.9,0,0,1-7.9,45.4,107.8,107.8,0,0,1-22,35.6,115.8,115.8,0,0,1-34.1,24.7,158.6,158.6,0,0,1-44,13.9v2q60.4,7.6,91.9,38.5c21,20.6,31.4,47.4,31.4,80.5q0,32.8-11.1,60.1a124,124,0,0,1-33.6,47.2q-22.6,19.8-57.1,30.8c-23,7.3-50.3,10.9-81.7,10.9a401.4,401.4,0,0,1-70.2-5.8A209.4,209.4,0,0,1,810,927.2V869.1a292.2,292.2,0,0,0,130.9,32.8q31.5,0,54.4-6.8c15.2-4.6,27.8-11.1,37.7-19.5a74.5,74.5,0,0,0,21.9-31.1c4.7-12.3,7-26.1,7-41.4s-3-28.7-9-39.8a76.5,76.5,0,0,0-25.8-27.3c-11.2-7.2-24.8-12.5-40.9-15.9S952,715,931.7,715H886.2V663.3h45.5c18.5,0,34.9-2.2,49.2-6.8s26.4-11,36.1-19.5a81.8,81.8,0,0,0,22-30.1,95.4,95.4,0,0,0,7.5-38.2c0-11.9-2-22.5-6.1-31.8a65.8,65.8,0,0,0-17.4-23.8,78.5,78.5,0,0,0-27-14.8,109.8,109.8,0,0,0-34.9-5.2q-36.6,0-64.4,11.5a252.7,252.7,0,0,0-53.2,29.9l-31.4-42.7A219,219,0,0,1,841,471.9a234.9,234.9,0,0,1,34.6-16.2,246.7,246.7,0,0,1,40.2-11.1,242.2,242.2,0,0,1,45.3-4.1q36.9,0,64.8,9.2c18.5,6.2,34.1,14.8,46.6,25.8a107.7,107.7,0,0,1,28.4,39.3Q1110.5,537.6,1110.5,564.6Z" transform="translate(-162.9 -233.4)"/></svg>