<svg id="a1a28c94-1a1d-4504-b4a5-409b9cfb362e" data-name="Ebene 1" xmlns="http://www.w3.org/2000/svg" viewBox="0 0 1026.7 799.5"><title>icon-editpop-quote-1</title><path d="M81.9,753.2a613.3,613.3,0,0,1,24.8-173.9q24.9-84.3,80.7-156.1t144-129.1q88.2-57.3,213.6-94.6V318.3Q406.1,362.6,341.5,426T276.9,572.3q0,27.8,15.1,46.3c10.1,12.5,23,23.5,38.7,33.2s32.2,19.1,49.6,28.3A288.4,288.4,0,0,1,430,713.2c15.7,12.9,28.5,28.8,38.7,47.7s15.2,42.5,15.2,71.1q0,81.4-53.2,124.2T298.8,999a219,219,0,0,1-82.2-15.8,202,202,0,0,1-69.8-47q-30.3-31.1-47.6-77.3T81.9,753.2Zm563.6,0a613.3,613.3,0,0,1,24.8-173.9Q695.2,495,751,423.2T895,294.1q88.2-57.3,213.6-94.6V318.3Q970.5,362.6,905.4,426T840.5,572.3c0,18.5,5,33.9,15.2,46.3s22.9,23.5,38.2,33.2,32,19.1,50,28.3a256.6,256.6,0,0,1,50,33.1,162.7,162.7,0,0,1,38.3,47.7c10.1,18.8,15.3,42.5,15.3,71.1q0,81.4-52.5,124.2T863.8,999a224.1,224.1,0,0,1-82.9-15.8,194,194,0,0,1-69.8-47q-29.7-31.1-47.6-77.3T645.5,753.2Z" transform="translate(-81.9 -199.5)"/></svg>