<svg id="e8f001a5-bac3-4fdd-8aa9-565ae16403aa" data-name="Ebene 1" xmlns="http://www.w3.org/2000/svg" xmlns:xlink="http://www.w3.org/1999/xlink" viewBox="0 0 845.4 237"><defs><style>.f4c62748-8c84-4960-bc58-55ba2ac4dab9{fill:none;}.e5108872-314f-4661-bf99-36ce0af6356c{fill:#2173ad;}.b08e1ad0-acb3-4fb7-9b0c-a6d6df2cf7cd{clip-path:url(#fdd480c8-83a2-491d-8e42-50736215dcbf);}.b97c9f1a-3fa5-47b4-b9cb-4757635fab4c{clip-path:url(#b2b5e243-7538-4219-854e-443f4203f56c);}</style><clipPath id="fdd480c8-83a2-491d-8e42-50736215dcbf" transform="translate(-44.5 -39)"><rect class="f4c62748-8c84-4960-bc58-55ba2ac4dab9" x="152.8" y="65.8" width="140.2" height="210.19"/></clipPath><clipPath id="b2b5e243-7538-4219-854e-443f4203f56c" transform="translate(-44.5 -39)"><rect class="f4c62748-8c84-4960-bc58-55ba2ac4dab9" x="152.8" y="65.8" width="140.2" height="210.19"/></clipPath></defs><title>toolchain-lettering-with-logo-cdColor</title><path class="e5108872-314f-4661-bf99-36ce0af6356c" d="M92.5,224.7V66.2h-48V52.7H155.2V66.2h-48V224.7Z" transform="translate(-44.5 -39)"/><path class="e5108872-314f-4661-bf99-36ce0af6356c" d="M329.9,224.7V39h14V224.7Z" transform="translate(-44.5 -39)"/><path class="e5108872-314f-4661-bf99-36ce0af6356c" d="M441,225.8a150.3,150.3,0,0,1-16.1.9c-13.7,0-23.7-2.1-30.1-6.5s-10.6-10.9-12.5-19.6-2.9-21.9-2.9-39.4,1.2-31.3,3.5-40.5,6.7-15.7,13-19.6,15.8-5.9,28.3-5.9a147.8,147.8,0,0,1,15.8.9,122.7,122.7,0,0,1,13.7,2.1v12a137.8,137.8,0,0,0-26.5-2.7c-10,0-17.4,1.4-22,4.2s-7.8,7.9-9.4,15-2.4,18.5-2.4,34,.8,27.6,2.4,34.9,4.7,12.2,9.4,14.9,12.1,4,22.5,4a121.3,121.3,0,0,0,14.1-.9,124.4,124.4,0,0,0,12.9-2.1v12A75.8,75.8,0,0,1,441,225.8Z" transform="translate(-44.5 -39)"/><path class="e5108872-314f-4661-bf99-36ce0af6356c" d="M563.9,148.7c0-12.5-.7-21.5-2.2-27s-4.3-9.1-8.4-11-10.8-2.7-20.1-2.7-18.2,2-22.9,6.1a26.4,26.4,0,0,0-8.9,16c-1.2,6.6-1.7,16.1-1.7,28.6v66h-14V39h14v75.2h1a27.1,27.1,0,0,1,11.7-13.7c5.7-3.5,14.3-5.3,25.8-5.3s19.8,1.6,25.5,4.9,9.4,8.3,11.3,15.1,2.9,16.5,2.9,29v80.5h-14Z" transform="translate(-44.5 -39)"/><path class="e5108872-314f-4661-bf99-36ce0af6356c" d="M626.7,223.6A22.8,22.8,0,0,1,614,212.5c-2.7-5.4-4.1-12.9-4.1-22.5s1-17.2,3.1-22.4a20.6,20.6,0,0,1,10.7-11.4c5-2.3,12-3.5,21.2-3.5,4.7,0,19.3.4,44,1.3V144c0-11.5-.9-19.7-2.6-24.7a14.7,14.7,0,0,0-9.8-9.6c-4.7-1.5-12.6-2.2-23.6-2.2-4.8,0-10.8.3-18,.8a148.5,148.5,0,0,0-17.2,2.2v-12c10.8-2.2,24-3.3,39.7-3.3,12.8,0,22.5,1.4,28.9,4.1a23.1,23.1,0,0,1,13.1,14.2c2.3,6.6,3.5,16.6,3.5,29.7v81.5h-12l-1-19h-1.2c-2.9,8.5-7.8,14.1-14.8,16.9s-15.2,4.1-24.7,4.1S632.3,225.7,626.7,223.6ZM672.5,212a17.9,17.9,0,0,0,11.4-10.3,56.6,56.6,0,0,0,3.9-12.9,103.3,103.3,0,0,0,1.1-16.1V164H648.4c-7,0-12.2.6-15.5,1.8a11.9,11.9,0,0,0-7,7.2c-1.3,3.5-2,8.9-2,16.2s.8,12.3,2.3,15.8a13,13,0,0,0,8.2,7.3c4,1.5,10,2.2,18,2.2S667.3,213.6,672.5,212Z" transform="translate(-44.5 -39)"/><path class="e5108872-314f-4661-bf99-36ce0af6356c" d="M742.4,57.7V39h15.5V57.7Zm.8,167V97.2h14V224.7Z" transform="translate(-44.5 -39)"/><path class="e5108872-314f-4661-bf99-36ce0af6356c" d="M875.9,148.7c0-12.5-.8-21.5-2.3-27s-4.2-9.1-8.3-11-10.8-2.7-20.2-2.7-18.1,2-22.8,6.1a26.4,26.4,0,0,0-8.9,16c-1.2,6.6-1.8,16.1-1.8,28.6v66h-14V97.2h12l1,19h1a29.9,29.9,0,0,1,12.2-15.5c5.7-3.6,14.5-5.5,26.3-5.5s19.9,1.6,25.5,4.9,9.5,8.3,11.4,15.1,2.9,16.6,2.9,29.3v80.2h-14Z" transform="translate(-44.5 -39)"/><g class="b08e1ad0-acb3-4fb7-9b0c-a6d6df2cf7cd"><g class="b97c9f1a-3fa5-47b4-b9cb-4757635fab4c"><path class="e5108872-314f-4661-bf99-36ce0af6356c" d="M248.2,166.7q-3-13-12.9-18.3c-5.1-2.7-12.9-4.4-23.3-5,.1,4.7.2,8.8.4,12.5,6.3.6,11,1.7,14.2,3.5,4.7,2.6,7.6,7.2,8.7,14s1.6,18.8,1.6,36.4-.5,29.6-1.6,36.2-4,11.3-8.7,13.8-13,3.8-24.8,3.8-20-1.3-24.6-3.8-7.5-7.1-8.6-13.8-1.7-18.7-1.7-36.2.6-29.9,1.7-36.5,3.9-11.3,8.6-13.9,8.3-3.1,15.1-3.6c-.2-3.8-.4-7.9-.5-12.5-10.4.7-18.2,2.3-23.3,5.1q-10.2,5.3-12.9,18.3c-1.9,8.7-2.8,23-2.8,43.1s.9,34.1,2.8,42.8,6.1,14.7,12.9,18.2,17.8,5.2,33.3,5.2,26.8-1.8,33.5-5.2,10.9-9.5,12.9-18.2,2.9-23,2.9-42.8-1-34.4-2.9-43.1" transform="translate(-44.5 -39)"/><path class="e5108872-314f-4661-bf99-36ce0af6356c" d="M290.1,89.4c-1.9-8.7-6.2-14.8-12.8-18.3s-17.9-5.3-33.5-5.3-26.6,1.7-33.4,5.3-11,9.6-12.9,18.3-2.7,23-2.7,43.1.9,34.1,2.7,42.8,6.2,14.7,12.9,18.2c5.2,2.6,13,4.3,23.4,4.9-.1-4.7-.2-8.9-.4-12.5-6.4-.6-11.1-1.7-14.3-3.4s-7.5-7.1-8.6-13.8-1.6-18.7-1.6-36.2.6-29.9,1.6-36.5,4-11.3,8.6-13.9,12.9-4,24.7-4,20,1.4,24.7,4,7.7,7.3,8.8,14,1.6,18.9,1.6,36.4-.6,29.6-1.6,36.2-4.1,11.3-8.8,13.8-8.3,2.9-15,3.4c.2,3.8.4,8,.5,12.5,10.4-.6,18.1-2.3,23.3-4.9s10.9-9.5,12.8-18.2,2.9-23,2.9-42.8-.9-34.4-2.9-43.1" transform="translate(-44.5 -39)"/></g></g></svg>