<svg id="b530f55d-ba57-4fa3-981b-51c1959faebe" data-name="Ebene 1" xmlns="http://www.w3.org/2000/svg" viewBox="0 0 761.4 1141.1"><defs><style>.a107015f-f237-4da2-a49c-42a9d62ef9e5{fill:#2173ad;}</style></defs><title>toolchain-logo-cdColor</title><g id="a8ad4143-1980-48f6-b39b-d3bda6695525" data-name="cd-color"><path class="a107015f-f237-4da2-a49c-42a9d62ef9e5" d="M517.8,547.8q-15.7-70.6-70-99.4-41.6-22-126.3-27.2c.5,25.5,1.1,48.2,2.1,68q51.3,4.7,76.9,18.9,38.4,21.1,47.3,76.1t9,197.5q0,142.6-9,196.8t-47.3,74.8q-38.4,20.5-134.4,20.6t-133.7-20.6q-37.8-20.5-46.7-74.8T76.8,781.7q0-144,8.9-198.2t46.7-75.4q26.5-15,82-19.4-1.8-30.9-2.5-67.6Q127.3,426.2,85,448.4c-36.5,19.2-59.9,52.3-69.9,99.4S0,672.9,0,781.7s5,185.4,15.1,232.5,33.4,80,69.9,98.8,97,28.1,181.1,28.1,145.6-9.4,181.7-28.1,59.5-51.7,70-98.8,15.8-124.6,15.8-232.5S528.3,594.9,517.8,547.8Z" transform="translate(0 0)"/><path class="a107015f-f237-4da2-a49c-42a9d62ef9e5" d="M745.6,128.2q-15.7-70.5-69.9-99.4T493.9,0q-126.1,0-181,28.8t-70,99.4Q227.8,199,227.8,362.1t15.1,232.5q15.2,70.6,70,98.8c28.1,14.4,70.5,23.3,126.9,26.6-.4-25.5-1.2-48.2-2.2-67.9-34.6-3-60.5-9.1-77.4-18.4q-37.8-20.6-46.7-74.8t-8.9-196.8q0-144,8.9-198.2t46.7-75.4q37.7-21.3,133.7-21.3T628.3,88.5q38.4,21.3,47.4,76.1t8.9,197.5q0,142.6-8.9,196.8t-47.4,74.8q-26.7,14.4-81.6,18.7c1.3,20.5,2.1,43,2.7,67.5,56.4-3.3,98.6-12.2,126.3-26.5q54.1-28.2,69.9-98.8t15.8-232.5Q761.4,198.9,745.6,128.2Z" transform="translate(0 0)"/></g></svg>