<svg id="ff7e7ed1-be5c-40ce-a2da-7efd46f9ee18" data-name="Ebene 1" xmlns="http://www.w3.org/2000/svg" viewBox="0 0 946 187.8"><defs><style>.be5577ca-628c-4192-b888-d9c3640ac059{fill:#fff;}</style></defs><title>toolchain-lettering-white</title><g id="b5c6ca01-b9b2-4ddf-b0a4-2bff92bf1574" data-name="Toolchain-cdColor"><path class="be5577ca-628c-4192-b888-d9c3640ac059" d="M64.6,236.9V78.4h-48V64.9H127.3V78.4h-48V236.9Z" transform="translate(-16.6 -51.2)"/><path class="be5577ca-628c-4192-b888-d9c3640ac059" d="M157.6,233.8c-6.7-3.4-11-9.4-12.8-18s-2.7-22.7-2.7-42.4.9-34,2.7-42.6,6.1-14.6,12.8-18.1,17.6-5.3,33-5.3,26.5,1.8,33.1,5.3,10.8,9.5,12.7,18.1,2.9,22.8,2.9,42.6-1,33.8-2.9,42.4-6.1,14.6-12.7,18-17.6,5.1-33.1,5.1S164.2,237.2,157.6,233.8Zm57.5-10.9c4.6-2.5,7.5-7,8.6-13.6s1.6-18.6,1.6-35.9-.5-29.3-1.6-36-4-11.3-8.6-13.9-12.9-3.8-24.5-3.8-19.8,1.2-24.4,3.8-7.4,7.2-8.5,13.8-1.6,18.6-1.6,36.1.5,29.3,1.6,35.9,3.9,11.1,8.5,13.6,12.7,3.8,24.4,3.8S210.4,225.4,215.1,222.9Z" transform="translate(-16.6 -51.2)"/><path class="be5577ca-628c-4192-b888-d9c3640ac059" d="M285.3,233.8c-6.7-3.4-10.9-9.4-12.8-18s-2.7-22.7-2.7-42.4.9-34,2.7-42.6,6.1-14.6,12.8-18.1,17.7-5.3,33-5.3,26.5,1.8,33.1,5.3,10.9,9.5,12.8,18.1,2.8,22.8,2.8,42.6-.9,33.8-2.8,42.4-6.2,14.6-12.8,18-17.6,5.1-33.1,5.1S292,237.2,285.3,233.8Zm57.5-10.9c4.7-2.5,7.5-7,8.6-13.6s1.6-18.6,1.6-35.9-.5-29.3-1.6-36-3.9-11.3-8.6-13.9-12.8-3.8-24.5-3.8-19.8,1.2-24.4,3.8-7.4,7.2-8.5,13.8-1.6,18.6-1.6,36.1.5,29.3,1.6,35.9,3.9,11.1,8.5,13.6,12.7,3.8,24.4,3.8S338.1,225.4,342.8,222.9Z" transform="translate(-16.6 -51.2)"/><path class="be5577ca-628c-4192-b888-d9c3640ac059" d="M402.5,236.9V51.2h14V236.9Z" transform="translate(-16.6 -51.2)"/><path class="be5577ca-628c-4192-b888-d9c3640ac059" d="M513.7,238a152.2,152.2,0,0,1-16.2.9c-13.6,0-23.7-2.2-30.1-6.5s-10.6-10.9-12.5-19.6-2.9-21.9-2.9-39.4,1.2-31.3,3.5-40.5,6.7-15.7,13-19.6,15.8-5.9,28.3-5.9a149.6,149.6,0,0,1,15.9.9,124.2,124.2,0,0,1,13.6,2.1v12a137.8,137.8,0,0,0-26.5-2.7c-10,0-17.3,1.4-22,4.2s-7.8,7.8-9.4,15-2.4,18.5-2.4,34,.8,27.6,2.4,34.9,4.7,12.2,9.4,14.9,12.2,4,22.5,4a121.3,121.3,0,0,0,14.1-.9,124.4,124.4,0,0,0,12.9-2.1v12A86.3,86.3,0,0,1,513.7,238Z" transform="translate(-16.6 -51.2)"/><path class="be5577ca-628c-4192-b888-d9c3640ac059" d="M636.5,160.9c0-12.5-.7-21.5-2.2-27s-4.3-9.2-8.4-11-10.8-2.7-20.1-2.7-18.1,2-22.9,6.1a26.9,26.9,0,0,0-8.9,16c-1.1,6.6-1.7,16.1-1.7,28.6v66h-14V51.2h14v75.2h1A27.7,27.7,0,0,1,585,112.7c5.7-3.5,14.3-5.3,25.8-5.3s19.8,1.6,25.5,4.9,9.4,8.3,11.4,15.1,2.8,16.5,2.8,29v80.5h-14Z" transform="translate(-16.6 -51.2)"/><path class="be5577ca-628c-4192-b888-d9c3640ac059" d="M699.3,235.8a22.3,22.3,0,0,1-12.6-11.1q-4.2-8.1-4.2-22.5c0-9.7,1.1-17.2,3.2-22.4a19.8,19.8,0,0,1,10.6-11.4c5-2.3,12.1-3.5,21.2-3.5,4.7,0,19.4.4,44,1.3v-10c0-11.5-.8-19.8-2.6-24.7a14.6,14.6,0,0,0-9.7-9.6c-4.8-1.5-12.7-2.2-23.7-2.2-4.8,0-10.8.2-18,.8a151.5,151.5,0,0,0-17.2,2.2v-12c10.8-2.2,24.1-3.3,39.7-3.3,12.9,0,22.5,1.4,28.9,4.1A23.1,23.1,0,0,1,772,125.7c2.4,6.6,3.5,16.5,3.5,29.7v81.5h-12l-1-19h-1.2c-2.8,8.5-7.8,14.1-14.8,16.9s-15.2,4.1-24.7,4.1S705,237.9,699.3,235.8Zm45.9-11.6a18,18,0,0,0,11.3-10.3,50.4,50.4,0,0,0,3.9-12.9,93.1,93.1,0,0,0,1.1-16.1v-8.7H721c-7,0-12.1.6-15.5,1.8a12.1,12.1,0,0,0-7,7.2c-1.3,3.5-2,8.9-2,16.2s.8,12.3,2.3,15.8a13,13,0,0,0,8.2,7.3c4,1.4,10,2.2,18,2.2A70.7,70.7,0,0,0,745.2,224.2Z" transform="translate(-16.6 -51.2)"/><path class="be5577ca-628c-4192-b888-d9c3640ac059" d="M815,69.9V51.2h15.5V69.9Zm.8,167V109.4h14V236.9Z" transform="translate(-16.6 -51.2)"/><path class="be5577ca-628c-4192-b888-d9c3640ac059" d="M948.5,160.9c0-12.5-.7-21.5-2.2-27s-4.3-9.2-8.4-11-10.8-2.7-20.1-2.7-18.1,2-22.9,6.1a26.9,26.9,0,0,0-8.9,16c-1.1,6.6-1.7,16.1-1.7,28.6v66h-14V109.4h12l1,19h1a29.3,29.3,0,0,1,12.1-15.5c5.8-3.7,14.5-5.5,26.4-5.5s19.8,1.6,25.5,4.9,9.4,8.3,11.4,15.1,2.8,16.6,2.8,29.3v80.2h-14Z" transform="translate(-16.6 -51.2)"/></g></svg>